<svg width="24" height="26" viewBox="0 0 24 26" fill="none" xmlns="http://www.w3.org/2000/svg">
<path d="M4.5 25.5C3.45833 25.5 2.57292 25.1354 1.84375 24.4062C1.11458 23.6771 0.75 22.7917 0.75 21.75V18H4.5V0.5L6.375 2.375L8.25 0.5L10.125 2.375L12 0.5L13.875 2.375L15.75 0.5L17.625 2.375L19.5 0.5L21.375 2.375L23.25 0.5V21.75C23.25 22.7917 22.8854 23.6771 22.1562 24.4062C21.4271 25.1354 20.5417 25.5 19.5 25.5H4.5ZM19.5 23C19.8542 23 20.151 22.8802 20.3906 22.6406C20.6302 22.401 20.75 22.1042 20.75 21.75V4.25H7V18H18.25V21.75C18.25 22.1042 18.3698 22.401 18.6094 22.6406C18.849 22.8802 19.1458 23 19.5 23ZM8.25 9.25V6.75H15.75V9.25H8.25ZM8.25 13V10.5H15.75V13H8.25ZM18.25 9.25C17.8958 9.25 17.599 9.13021 17.3594 8.89062C17.1198 8.65104 17 8.35417 17 8C17 7.64583 17.1198 7.34896 17.3594 7.10938C17.599 6.86979 17.8958 6.75 18.25 6.75C18.6042 6.75 18.901 6.86979 19.1406 7.10938C19.3802 7.34896 19.5 7.64583 19.5 8C19.5 8.35417 19.3802 8.65104 19.1406 8.89062C18.901 9.13021 18.6042 9.25 18.25 9.25ZM18.25 13C17.8958 13 17.599 12.8802 17.3594 12.6406C17.1198 12.401 17 12.1042 17 11.75C17 11.3958 17.1198 11.099 17.3594 10.8594C17.599 10.6198 17.8958 10.5 18.25 10.5C18.6042 10.5 18.901 10.6198 19.1406 10.8594C19.3802 11.099 19.5 11.3958 19.5 11.75C19.5 12.1042 19.3802 12.401 19.1406 12.6406C18.901 12.8802 18.6042 13 18.25 13ZM4.5 23H15.75V20.5H3.25V21.75C3.25 22.1042 3.36979 22.401 3.60938 22.6406C3.84896 22.8802 4.14583 23 4.5 23Z" fill="#1C1B1F"/>
</svg>
