<svg width="393" height="91" viewBox="0 0 393 91" fill="none" xmlns="http://www.w3.org/2000/svg">
<rect x="-1" width="394" height="91" fill="#FFCA87"/>
<rect x="-1" width="394" height="91" fill="#B0D3B8"/>
<path d="M107.174 24.586H110.1V39.304H107.174V24.586ZM109.264 30.13H112.806V32.528H109.264V30.13ZM94.8323 33.628H96.5263C100.948 33.628 103.148 33.54 105.59 33.012L105.876 35.322C103.39 35.872 101.058 35.982 96.5263 35.982H94.8323V33.628ZM94.8323 26.192H103.94V28.546H97.7363V34.882H94.8323V26.192ZM96.9663 42.274H110.826V44.606H96.9663V42.274ZM96.9663 37.764H99.8923V43.462H96.9663V37.764ZM114.125 25.884H116.875V28.744H119.471V25.884H122.199V35.74H114.125V25.884ZM116.875 30.988V33.452H119.471V30.988H116.875ZM128.007 24.608H130.779V36.862H128.007V24.608ZM125.565 29.558H128.799V31.934H125.565V29.558ZM123.695 24.96H126.423V36.774H123.695V24.96ZM116.787 37.786H130.779V44.958H127.875V40.118H116.787V37.786ZM146.771 24.586H149.719V35.014H146.771V24.586ZM136.123 35.828H149.719V41.306H139.027V43.44H136.167V39.26H146.815V38.05H136.123V35.828ZM136.167 42.582H150.225V44.826H136.167V42.582ZM137.729 26.522H140.105V27.314C140.105 30.922 138.191 34.134 134.209 35.256L132.867 32.968C136.255 32.022 137.729 29.646 137.729 27.314V26.522ZM138.367 26.522H140.721V27.314C140.721 29.47 142.173 31.692 145.495 32.594L144.153 34.838C140.237 33.782 138.367 30.724 138.367 27.314V26.522ZM133.637 25.51H144.725V27.82H133.637V25.51ZM156.564 40.228H175V42.604H156.564V40.228ZM164.286 35.872H167.212V40.8H164.286V35.872ZM158.5 25.884H161.404V29.008H170.094V25.884H172.998V36.488H158.5V25.884ZM161.404 31.296V34.156H170.094V31.296H161.404ZM183.645 35.872H186.549V38.798H183.645V35.872ZM175.901 34.376H194.315V36.664H175.901V34.376ZM183.645 24.652H186.549V27.468H183.645V24.652ZM183.469 27.688H186.043V28.084C186.043 31.164 183.095 33.342 177.529 33.716L176.671 31.516C181.577 31.23 183.469 29.646 183.469 28.084V27.688ZM184.151 27.688H186.725V28.084C186.725 29.646 188.617 31.23 193.523 31.516L192.665 33.716C187.099 33.342 184.151 31.164 184.151 28.084V27.688ZM177.661 26.412H192.555V28.678H177.661V26.412ZM185.075 38.05C189.519 38.05 192.137 39.282 192.137 41.504C192.137 43.748 189.519 44.958 185.075 44.958C180.631 44.958 177.991 43.748 177.991 41.504C177.991 39.282 180.631 38.05 185.075 38.05ZM185.075 40.206C182.303 40.206 180.961 40.58 180.961 41.504C180.961 42.406 182.303 42.802 185.075 42.802C187.825 42.802 189.189 42.406 189.189 41.504C189.189 40.58 187.825 40.206 185.075 40.206ZM195.259 34.97H213.673V37.302H195.259V34.97ZM197.481 42.274H211.605V44.606H197.481V42.274ZM197.481 38.666H200.407V43.022H197.481V38.666ZM204.477 25.18C208.899 25.18 211.847 26.786 211.847 29.382C211.847 31.978 208.899 33.584 204.477 33.584C200.033 33.584 197.107 31.978 197.107 29.382C197.107 26.786 200.033 25.18 204.477 25.18ZM204.477 27.512C201.727 27.512 200.121 28.15 200.121 29.382C200.121 30.636 201.727 31.252 204.477 31.252C207.227 31.252 208.833 30.636 208.833 29.382C208.833 28.15 207.227 27.512 204.477 27.512Z" fill="black"/>
<path d="M232.134 24.586H235.06V39.304H232.134V24.586ZM234.224 30.13H237.766V32.528H234.224V30.13ZM219.792 33.628H221.486C225.908 33.628 228.108 33.54 230.55 33.012L230.836 35.322C228.35 35.872 226.018 35.982 221.486 35.982H219.792V33.628ZM219.792 26.192H228.9V28.546H222.696V34.882H219.792V26.192ZM221.926 42.274H235.786V44.606H221.926V42.274ZM221.926 37.764H224.852V43.462H221.926V37.764ZM239.085 25.884H241.835V28.744H244.431V25.884H247.159V35.74H239.085V25.884ZM241.835 30.988V33.452H244.431V30.988H241.835ZM252.967 24.608H255.739V36.862H252.967V24.608ZM250.525 29.558H253.759V31.934H250.525V29.558ZM248.655 24.96H251.383V36.774H248.655V24.96ZM241.747 37.786H255.739V44.958H252.835V40.118H241.747V37.786ZM270.763 24.586H273.711V44.958H270.763V24.586ZM273.051 32.176H276.659V34.596H273.051V32.176ZM258.355 26.192H261.259V31.142H265.351V26.192H268.255V40.25H258.355V26.192ZM261.259 33.408V37.896H265.351V33.408H261.259ZM277.119 40.338H295.555V42.714H277.119V40.338ZM284.841 36.488H287.767V41.306H284.841V36.488ZM279.187 25.906H293.487V32.682H282.135V36.114H279.231V30.394H290.583V28.216H279.187V25.906ZM279.231 34.948H293.949V37.302H279.231V34.948ZM296.708 38.38V27.6H299.249V38.38H296.708ZM297.995 43.286C297.563 43.286 297.196 43.1357 296.895 42.835C296.602 42.5343 296.455 42.1677 296.455 41.735C296.455 41.3097 296.602 40.9503 296.895 40.657C297.196 40.3637 297.563 40.217 297.995 40.217C298.413 40.217 298.769 40.3637 299.062 40.657C299.356 40.9503 299.502 41.3097 299.502 41.735C299.502 42.1677 299.356 42.5343 299.062 42.835C298.769 43.1357 298.413 43.286 297.995 43.286Z" fill="#387E48"/>
<path d="M114.212 61.356H124.016V62.184H114.212V61.356ZM118.616 61.992H119.6V66.936H118.616V61.992ZM115.004 56.844H117.872V57.648H115.004V56.844ZM117.536 56.844H118.508V57.204C118.508 57.936 118.508 59.484 117.92 61.716L116.936 61.56C117.536 59.436 117.536 57.96 117.536 57.204V56.844ZM119.3 56.844H122.36V57.648H119.3V56.844ZM121.94 56.844H122.912V57.336C122.912 58.152 122.912 59.604 122.444 61.704L121.46 61.56C121.94 59.544 121.94 58.152 121.94 57.336V56.844ZM125.371 61.248H126.175C128.299 61.248 129.499 61.2 130.891 60.912L131.011 61.716C129.571 62.004 128.335 62.076 126.175 62.076H125.371V61.248ZM125.371 56.844H130.303V57.648H126.343V61.512H125.371V56.844ZM126.463 63.132H133.699V66.936H132.703V63.948H126.463V63.132ZM132.703 56.088H133.699V62.58H132.703V56.088ZM129.667 58.896H132.979V59.7H129.667V58.896ZM135.33 61.836H145.134V62.628H135.33V61.836ZM139.746 60.48H140.73V62.184H139.746V60.48ZM136.422 63.66H143.922V66.936H142.926V64.476H136.422V63.66ZM139.746 56.028H140.73V57.54H139.746V56.028ZM139.698 57.708H140.574V57.888C140.574 59.664 138.594 60.72 136.23 60.972L135.918 60.204C138.018 60.012 139.698 59.136 139.698 57.888V57.708ZM139.902 57.708H140.778V57.888C140.778 59.136 142.458 60.012 144.558 60.204L144.246 60.972C141.87 60.72 139.902 59.664 139.902 57.888V57.708ZM136.338 57.156H144.138V57.948H136.338V57.156ZM145.889 61.836H155.693V62.628H145.889V61.836ZM150.305 60.48H151.289V62.184H150.305V60.48ZM146.981 63.66H154.481V66.936H153.485V64.476H146.981V63.66ZM150.305 56.028H151.289V57.54H150.305V56.028ZM150.257 57.708H151.133V57.888C151.133 59.664 149.153 60.72 146.789 60.972L146.477 60.204C148.577 60.012 150.257 59.136 150.257 57.888V57.708ZM150.461 57.708H151.337V57.888C151.337 59.136 153.017 60.012 155.117 60.204L154.805 60.972C152.429 60.72 150.461 59.664 150.461 57.888V57.708ZM146.897 57.156H154.697V57.948H146.897V57.156ZM166.207 56.088H167.203V66.936H166.207V56.088ZM166.963 60.54H168.979V61.38H166.963V60.54ZM158.803 57.816H165.199V58.632H158.803V57.816ZM162.043 59.532C163.579 59.532 164.683 60.564 164.683 62.028C164.683 63.492 163.579 64.524 162.043 64.524C160.519 64.524 159.403 63.492 159.403 62.028C159.403 60.564 160.519 59.532 162.043 59.532ZM162.043 60.36C161.059 60.36 160.351 61.044 160.351 62.028C160.351 63 161.059 63.696 162.043 63.696C163.027 63.696 163.735 63 163.735 62.028C163.735 61.044 163.027 60.36 162.043 60.36ZM161.527 56.22H162.523V58.188H161.527V56.22ZM170.586 56.52H178.05V59.352H171.618V61.224H170.61V58.584H177.054V57.324H170.586V56.52ZM170.61 60.732H178.302V61.548H170.61V60.732ZM169.41 62.664H179.25V63.492H169.41V62.664ZM173.814 62.976H174.798V66.948H173.814V62.976ZM187.397 56.076H188.393V63.936H187.397V56.076ZM188.093 59.304H190.001V60.132H188.093V59.304ZM180.473 61.2H181.313C183.545 61.2 184.805 61.14 186.257 60.84L186.365 61.644C184.877 61.956 183.593 62.028 181.313 62.028H180.473V61.2ZM180.473 57.012H185.261V57.84H181.457V61.644H180.473V57.012ZM181.637 65.88H188.885V66.696H181.637V65.88ZM181.637 63.156H182.633V66.252H181.637V63.156ZM191.02 56.784H191.956V58.488H194.272V56.784H195.22V61.836H191.02V56.784ZM191.956 59.28V61.032H194.272V59.28H191.956ZM198.724 56.1H199.672V62.604H198.724V56.1ZM196.972 58.908H199.024V59.736H196.972V58.908ZM196.396 56.292H197.344V62.544H196.396V56.292ZM192.4 63.252H199.672V66.936H198.688V64.068H192.4V63.252ZM208.431 56.088H209.439V66.936H208.431V56.088ZM209.199 60.348H211.215V61.2H209.199V60.348ZM201.519 57H202.503V59.868H205.599V57H206.583V64.332H201.519V57ZM202.503 60.66V63.516H205.599V60.66H202.503ZM214.763 66V58.116H213.941L214.103 57.6H215.279V66H214.763ZM217.061 66V58.116H216.239L216.401 57.6H217.577V66H217.061ZM221.608 66.156C221.1 66.156 220.648 66.044 220.252 65.82C219.856 65.592 219.52 65.278 219.244 64.878C218.972 64.478 218.766 64.016 218.626 63.492C218.486 62.964 218.416 62.4 218.416 61.8C218.416 61.196 218.486 60.632 218.626 60.108C218.766 59.58 218.972 59.118 219.244 58.722C219.52 58.322 219.856 58.01 220.252 57.786C220.648 57.558 221.1 57.444 221.608 57.444C222.116 57.444 222.566 57.558 222.958 57.786C223.354 58.01 223.688 58.322 223.96 58.722C224.232 59.118 224.438 59.58 224.578 60.108C224.718 60.632 224.788 61.196 224.788 61.8C224.788 62.4 224.718 62.964 224.578 63.492C224.438 64.016 224.232 64.478 223.96 64.878C223.688 65.278 223.354 65.592 222.958 65.82C222.566 66.044 222.116 66.156 221.608 66.156ZM221.608 65.64C222.192 65.64 222.682 65.466 223.078 65.118C223.478 64.766 223.778 64.3 223.978 63.72C224.182 63.136 224.284 62.496 224.284 61.8C224.284 61.068 224.18 60.414 223.972 59.838C223.764 59.258 223.46 58.8 223.06 58.464C222.664 58.128 222.18 57.96 221.608 57.96C221.156 57.96 220.762 58.062 220.426 58.266C220.09 58.47 219.81 58.75 219.586 59.106C219.366 59.462 219.2 59.872 219.088 60.336C218.976 60.8 218.92 61.288 218.92 61.8C218.92 62.504 219.022 63.146 219.226 63.726C219.434 64.306 219.738 64.77 220.138 65.118C220.538 65.466 221.028 65.64 221.608 65.64ZM228.183 66.156C227.675 66.156 227.223 66.044 226.827 65.82C226.431 65.592 226.095 65.278 225.819 64.878C225.547 64.478 225.341 64.016 225.201 63.492C225.061 62.964 224.991 62.4 224.991 61.8C224.991 61.196 225.061 60.632 225.201 60.108C225.341 59.58 225.547 59.118 225.819 58.722C226.095 58.322 226.431 58.01 226.827 57.786C227.223 57.558 227.675 57.444 228.183 57.444C228.691 57.444 229.141 57.558 229.533 57.786C229.929 58.01 230.263 58.322 230.535 58.722C230.807 59.118 231.013 59.58 231.153 60.108C231.293 60.632 231.363 61.196 231.363 61.8C231.363 62.4 231.293 62.964 231.153 63.492C231.013 64.016 230.807 64.478 230.535 64.878C230.263 65.278 229.929 65.592 229.533 65.82C229.141 66.044 228.691 66.156 228.183 66.156ZM228.183 65.64C228.767 65.64 229.257 65.466 229.653 65.118C230.053 64.766 230.353 64.3 230.553 63.72C230.757 63.136 230.859 62.496 230.859 61.8C230.859 61.068 230.755 60.414 230.547 59.838C230.339 59.258 230.035 58.8 229.635 58.464C229.239 58.128 228.755 57.96 228.183 57.96C227.731 57.96 227.337 58.062 227.001 58.266C226.665 58.47 226.385 58.75 226.161 59.106C225.941 59.462 225.775 59.872 225.663 60.336C225.551 60.8 225.495 61.288 225.495 61.8C225.495 62.504 225.597 63.146 225.801 63.726C226.009 64.306 226.313 64.77 226.713 65.118C227.113 65.466 227.603 65.64 228.183 65.64ZM231.96 66V57.6H234.486C234.93 57.6 235.33 57.706 235.686 57.918C236.042 58.13 236.324 58.42 236.532 58.788C236.744 59.152 236.85 59.562 236.85 60.018C236.85 60.478 236.742 60.892 236.526 61.26C236.314 61.624 236.028 61.912 235.668 62.124C235.312 62.332 234.918 62.436 234.486 62.436H232.476V66H231.96ZM232.476 61.92H234.462C234.806 61.92 235.12 61.838 235.404 61.674C235.688 61.506 235.914 61.278 236.082 60.99C236.25 60.698 236.334 60.37 236.334 60.006C236.334 59.638 236.25 59.31 236.082 59.022C235.914 58.73 235.688 58.502 235.404 58.338C235.12 58.17 234.806 58.086 234.462 58.086H232.476V61.92ZM241.846 60.3H243.898V61.128H241.846V60.3ZM245.71 56.088H246.67V66.936H245.71V56.088ZM243.562 56.316H244.51V66.396H243.562V56.316ZM239.89 56.988C241.294 56.988 242.206 58.44 242.206 60.768C242.206 63.096 241.294 64.548 239.89 64.548C238.486 64.548 237.586 63.096 237.586 60.768C237.586 58.44 238.486 56.988 239.89 56.988ZM239.89 57.912C239.038 57.912 238.498 59.016 238.498 60.768C238.498 62.52 239.038 63.624 239.89 63.624C240.754 63.624 241.294 62.52 241.294 60.768C241.294 59.016 240.754 57.912 239.89 57.912ZM250.74 57.096H256.536V57.912H250.74V57.096ZM250.56 62.472L250.44 61.632C252.336 61.62 254.916 61.596 257.04 61.332L257.112 62.076C254.952 62.412 252.408 62.472 250.56 62.472ZM251.808 57.708H252.768V61.8H251.808V57.708ZM254.496 57.708H255.456V61.8H254.496V57.708ZM257.832 56.1H258.828V64.092H257.832V56.1ZM258.516 59.388H260.436V60.228H258.516V59.388ZM252.072 65.88H259.32V66.696H252.072V65.88ZM252.072 63.324H253.068V66.096H252.072V63.324ZM269.231 56.088H270.191V66.936H269.231V56.088ZM267.515 60.384H269.591V61.2H267.515V60.384ZM266.831 56.316H267.779V66.396H266.831V56.316ZM261.359 57.336H265.499V64.032H261.359V57.336ZM264.563 58.128H262.295V63.24H264.563V58.128ZM278.329 61.512H279.325V63.408H278.329V61.512ZM273.925 61.164H283.729V61.968H273.925V61.164ZM278.821 63.108C281.149 63.108 282.541 63.792 282.541 65.016C282.541 66.228 281.149 66.912 278.821 66.912C276.493 66.912 275.101 66.228 275.101 65.016C275.101 63.792 276.493 63.108 278.821 63.108ZM278.821 63.876C277.129 63.876 276.109 64.284 276.109 65.016C276.109 65.736 277.129 66.144 278.821 66.144C280.525 66.144 281.533 65.736 281.533 65.016C281.533 64.284 280.525 63.876 278.821 63.876ZM278.185 56.976H279.073V57.3C279.073 59.052 277.081 60.228 274.837 60.504L274.477 59.712C276.421 59.508 278.185 58.536 278.185 57.3V56.976ZM278.605 56.976H279.481V57.3C279.481 58.536 281.245 59.508 283.189 59.712L282.829 60.504C280.585 60.228 278.605 59.052 278.605 57.3V56.976ZM274.825 56.58H282.853V57.384H274.825V56.58Z" fill="black"/>
</svg>
