<svg width="30" height="30" viewBox="0 0 30 30" fill="none" xmlns="http://www.w3.org/2000/svg">
<mask id="mask0_265_2142" style="mask-type:alpha" maskUnits="userSpaceOnUse" x="0" y="0" width="30" height="30">
<rect width="30" height="30" fill="#D9D9D9"/>
</mask>
<g mask="url(#mask0_265_2142)">
<path d="M7.5 27.5C6.45833 27.5 5.57292 27.1354 4.84375 26.4062C4.11458 25.6771 3.75 24.7917 3.75 23.75V20H7.5V2.5L9.375 4.375L11.25 2.5L13.125 4.375L15 2.5L16.875 4.375L18.75 2.5L20.625 4.375L22.5 2.5L24.375 4.375L26.25 2.5V23.75C26.25 24.7917 25.8854 25.6771 25.1562 26.4062C24.4271 27.1354 23.5417 27.5 22.5 27.5H7.5ZM22.5 25C22.8542 25 23.151 24.8802 23.3906 24.6406C23.6302 24.401 23.75 24.1042 23.75 23.75V6.25H10V20H21.25V23.75C21.25 24.1042 21.3698 24.401 21.6094 24.6406C21.849 24.8802 22.1458 25 22.5 25ZM11.25 11.25V8.75H18.75V11.25H11.25ZM11.25 15V12.5H18.75V15H11.25ZM21.25 11.25C20.8958 11.25 20.599 11.1302 20.3594 10.8906C20.1198 10.651 20 10.3542 20 10C20 9.64583 20.1198 9.34896 20.3594 9.10938C20.599 8.86979 20.8958 8.75 21.25 8.75C21.6042 8.75 21.901 8.86979 22.1406 9.10938C22.3802 9.34896 22.5 9.64583 22.5 10C22.5 10.3542 22.3802 10.651 22.1406 10.8906C21.901 11.1302 21.6042 11.25 21.25 11.25ZM21.25 15C20.8958 15 20.599 14.8802 20.3594 14.6406C20.1198 14.401 20 14.1042 20 13.75C20 13.3958 20.1198 13.099 20.3594 12.8594C20.599 12.6198 20.8958 12.5 21.25 12.5C21.6042 12.5 21.901 12.6198 22.1406 12.8594C22.3802 13.099 22.5 13.3958 22.5 13.75C22.5 14.1042 22.3802 14.401 22.1406 14.6406C21.901 14.8802 21.6042 15 21.25 15ZM7.5 25H18.75V22.5H6.25V23.75C6.25 24.1042 6.36979 24.401 6.60938 24.6406C6.84896 24.8802 7.14583 25 7.5 25Z" fill="#1C1B1F"/>
</g>
</svg>
