<svg width="16" height="16" viewBox="0 0 16 16" fill="none" xmlns="http://www.w3.org/2000/svg">
<path d="M15.9687 14.3106L14.6667 2.06069C14.6667 1.29054 14.07 0.666748 13.3333 0.666748H8H2.66667C1.93 0.666748 1.33333 1.29054 1.33333 2.06069L0.0313333 14.3106C0.012 14.4061 0 14.5044 0 14.6061C0 15.3763 0.596667 16.0001 1.33333 16.0001H8H14.6667C15.4033 16.0001 16 15.3763 16 14.6061C16 14.5044 15.988 14.4061 15.9687 14.3106ZM11.3333 4.08748V4.84857C11.3333 6.77011 9.838 8.33341 8 8.33341C6.162 8.33341 4.66667 6.77011 4.66667 4.84857V4.08748C4.27933 3.9439 4 3.56057 4 3.10614C4 2.52905 4.448 2.06069 5 2.06069C5.552 2.06069 6 2.52905 6 3.10614V4.84857C6 6.00135 6.89733 6.93947 8 6.93947C9.10267 6.93947 10 6.00135 10 4.84857V3.10614C10 2.52905 10.448 2.06069 11 2.06069C11.552 2.06069 12 2.52905 12 3.10614C12 3.56057 11.7207 3.9439 11.3333 4.08748Z" fill="#303030"/>
</svg>
